PathFileType	4	(X/Y/Z)	Formatted/subject02/trials/walk2/markers.trc
DataRate	CameraRate	NumFrames	NumMarkers	Units	OrigDataRate	OrigDataStartFrame	OrigNumFrames
200.00000000000426	200.00000000000426	4	64	m	200.00000000000426	146	235
Frame#	Time	CLAV			C7			RACR			RASH			RPSH			RLEL			RMEL			RUA1			RUA2			RUA3			RFAsuperior			RFAradius			RFAulna			RASI			RPSI			RCAL			RTOE			RMT5			RTH1			RTH2			RTH3			RTB1			RTB2			RTB3			RLFC			RMFC			RLMAL			RMMAL			RHJC			RKJC			REJC			RAJC			RSJC			LACR			LASH			LPSH			LLEL			LMEL			LUA1			LUA2			LUA3			LFAsuperior			LFAradius			LFAulna			LASI			LPSI			LCAL			LTOE			LMT5			LTH1			LTH2			LTH3			LTB1			LTB2			LTB3			LLFC			LMFC			LLMAL			LMMAL			LHJC			LKJC			LEJC			LAJC			LSJC			
		X1	Y1	Z1	X2	Y2	Z2	X3	Y3	Z3	X4	Y4	Z4	X5	Y5	Z5	X6	Y6	Z6	X7	Y7	Z7	X8	Y8	Z8	X9	Y9	Z9	X10	Y10	Z10	X11	Y11	Z11	X12	Y12	Z12	X13	Y13	Z13	X14	Y14	Z14	X15	Y15	Z15	X16	Y16	Z16	X17	Y17	Z17	X18	Y18	Z18	X19	Y19	Z19	X20	Y20	Z20	X21	Y21	Z21	X22	Y22	Z22	X23	Y23	Z23	X24	Y24	Z24	X25	Y25	Z25	X26	Y26	Z26	X27	Y27	Z27	X28	Y28	Z28	X29	Y29	Z29	X30	Y30	Z30	X31	Y31	Z31	X32	Y32	Z32	X33	Y33	Z33	X34	Y34	Z34	X35	Y35	Z35	X36	Y36	Z36	X37	Y37	Z37	X38	Y38	Z38	X39	Y39	Z39	X40	Y40	Z40	X41	Y41	Z41	X42	Y42	Z42	X43	Y43	Z43	X44	Y44	Z44	X45	Y45	Z45	X46	Y46	Z46	X47	Y47	Z47	X48	Y48	Z48	X49	Y49	Z49	X50	Y50	Z50	X51	Y51	Z51	X52	Y52	Z52	X53	Y53	Z53	X54	Y54	Z54	X55	Y55	Z55	X56	Y56	Z56	X57	Y57	Z57	X58	Y58	Z58	X59	Y59	Z59	X60	Y60	Z60	X61	Y61	Z61	X62	Y62	Z62	X63	Y63	Z63	X64	Y64	Z64	

147	3.81	1.879040460911461	1.453487496909845	-0.4726657069160197	1.753712817362278	1.54279922762472	-0.5059264994735893	1.818513885126456	1.505746116687512	-0.3333530680074627	1.870475427859522	1.454642790914452	-0.3042410052537494	1.771804529355543	1.477424812428719	-0.3058187824721743	1.724387184080915	1.15429081105028	-0.1960193859235354	1.710261091947396	1.14360197927527	-0.2681913763354107	1.805781512808538	1.395246088144363	-0.2553349319258534	1.810924869150862	1.301572400813669	-0.2605160951321343	1.741925556884633	1.28742220824898	-0.231661040156495	1.809722784229593	1.086336768617202	-0.2267779752016303	1.926554606616862	0.9590806218008914	-0.1711951876440495	1.866705212224955	0.9346863992703413	-0.1339638603092406	1.849523747888977	1.032652566558516	-0.3598488604970975	1.674884116696991	1.054875687311178	-0.4634055460688574	1.294840406626278	0.2421442907007911	-0.412628323997977	1.415376555521636	0.04321931453878552	-0.4385225783589077	1.350950582773951	0.07519527071273835	-0.3464839994894223	1.762635484248947	0.8682100420186973	-0.3115827478370045	1.782800377636304	0.7505860867931129	-0.3092091985268296	1.684043951638304	0.6600840924048061	-0.3384031470866128	1.602676259031213	0.3672615116160736	-0.4006676789531373	1.539160435427312	0.336926980279691	-0.3335290139941741	1.478798335830148	0.2579689072482203	-0.402662715586551	1.688735106540875	0.5180598615170757	-0.3328218121653	1.701323169647908	0.5077176990768777	-0.4477429663159346	1.346788985684887	0.1883611948165164	-0.3515376398896372	1.359664425396882	0.1809002620106077	-0.4552071575434566	1.784654498484703	0.9239205197458465	-0.4174553440195121	1.69899029197501	0.5071294946054967	-0.3921445338555152	1.72215461357989	1.14029293108073	-0.2299211437542265	1.335001611411167	0.1847698576627863	-0.4126222670598859	1.824253045455333	1.46531502889281	-0.3049801149917205	1.822383335826663	1.495128286839799	-0.6803506669961166	1.874771720938507	1.445605489129101	-0.7034146621489702	1.76820715055421	1.470210072364509	-0.7051186615448691	1.719695542955303	1.134691310288472	-0.7571482122554076	1.693970272466712	1.132853925495488	-0.68506535818864	1.800358876883106	1.395251670909512	-0.7445365488791666	1.811279464944835	1.32272779364745	-0.732743485121109	1.718688598415915	1.299051034723802	-0.7245724549958842	1.763855238641324	1.050649031844668	-0.7006080771068482	1.817855399543839	0.8684607382589893	-0.7481252859325224	1.752320653718157	0.8613462092787481	-0.7799221135495582	1.874729206312876	1.040459259574223	-0.6208905940412981	1.682585944390171	1.062593259757975	-0.5452156911281734	1.904157128079781	0.05148201072939563	-0.542639550862125	2.1362490226453	0.04242668380589015	-0.5141841711275643	2.073541673321067	0.009635688044661046	-0.6046260175788044	1.851156613189423	0.8261182472787537	-0.672253266537887	1.946129556031116	0.7329391714706304	-0.65269803608806	1.919464371272235	0.6049674624943027	-0.6304145127949342	2.020330809225758	0.3873621318139531	-0.560802131925658	1.997079842151301	0.2999343892792251	-0.6147507338137979	2.011996055247389	0.1871436117137076	-0.5481683195701369	1.958023279546662	0.5371812796584838	-0.6280891830899278	1.966355855469798	0.5428092119965422	-0.5124553390643857	1.980406687832309	0.06382280412490238	-0.6008062812745327	1.991863379293157	0.07041157004459331	-0.4969114125797146	1.798732191428214	0.9285168084584086	-0.577402976802545	1.966664492748051	0.5392739695975159	-0.5681681093682781	1.713999465017783	1.127340303382558	-0.7235393534204447	1.973939433996953	0.05351793445873848	-0.5396903597782381	1.828549338534318	1.456277727107459	-0.7041537718869414	
148	3.815	1.885373711025143	1.454176738255377	-0.4728972928879702	1.760018381541434	1.543420482828138	-0.5062361475038341	1.824642156804208	1.506278894936319	-0.3336152600621423	1.876607576028539	1.45519157421768	-0.3044820334527467	1.777921470251488	1.477900518860281	-0.3061590714934237	1.729257973170633	1.154603253687767	-0.1980547923303612	1.715450870456435	1.144242267597774	-0.2703362400577934	1.811504262432962	1.395603252530027	-0.2559975638093644	1.816450530553337	1.30193944264955	-0.2615368250523599	1.747281133512312	1.287836512832989	-0.2330684368990468	1.814028531551301	1.085709825427036	-0.2284837378621327	1.928895049379322	0.9568047796726441	-0.1726051179913876	1.868484149593341	0.9329872199098713	-0.1359111556671229	1.856363514559142	1.032838925703465	-0.3608907769152687	1.681597161749471	1.055269759418361	-0.464188572777179	1.305004571283492	0.2500855513112966	-0.4117245254323879	1.418770123625995	0.04737542546441965	-0.4388653750844394	1.355511136970886	0.08096363579125081	-0.3465918660341832	1.770769987388167	0.8688445820492045	-0.3125937450588044	1.793243496417105	0.7516577617275233	-0.3094565425817777	1.696248679722869	0.6590400130962197	-0.3379115503939548	1.614815861695658	0.3679518422176868	-0.3995900482212643	1.550646988418216	0.3388167818400721	-0.3325412008706339	1.488577159231268	0.2614013131274429	-0.4019069746296849	1.703734381366394	0.5171760870151654	-0.3313822976918108	1.716386777230934	0.5063082711174404	-0.4462478660077344	1.355073253978815	0.1945478404170724	-0.3509874696274565	1.367789736756206	0.1871116069660061	-0.4546783798101752	1.791565211015279	0.9242613071391929	-0.4188671951464203	1.714165583003641	0.5056540361130271	-0.3906553807836999	1.727153933358869	1.140748967624386	-0.2320236894693515	1.343214457484913	0.1913946282254098	-0.4120824593560698	1.83037806977728	1.465829579335507	-0.3052676419229019	1.828932154507816	1.495940072670286	-0.6806163397969774	1.881385255566467	1.446475114158336	-0.7036573538561384	1.774804261327252	1.471000774372345	-0.7054685549400695	1.727238436153139	1.135392253714044	-0.7585255028198931	1.701358611606729	1.133299280334482	-0.6865049674228341	1.807210095171463	1.396122458999308	-0.7450487514980211	1.818289176674237	1.323595678693706	-0.7334225543082168	1.725741046071994	1.299662335354257	-0.7255192758974287	1.771718368898684	1.051466589588512	-0.7021023198341202	1.826832354004671	0.8697012593682374	-0.7499592964142708	1.761409806949614	0.8623058945594648	-0.7819226597499548	1.881305326359871	1.041715201055125	-0.6219236560740835	1.689210205027845	1.06332226059514	-0.545974743403715	1.904411259524637	0.0515316759999106	-0.5428458519334413	2.136477499429133	0.04222480264291951	-0.5142626836442705	2.073780105615212	0.009454799099062893	-0.6047190395761332	1.857446041581723	0.8267081120591062	-0.6734742859655316	1.951819105345564	0.7329737406661359	-0.6536702577438757	1.924340955605181	0.6051868962698134	-0.6313136150402496	2.023431053170791	0.3869071467111072	-0.5612560239234904	1.999570852046617	0.2996134362614462	-0.6151556361535053	2.013389150933037	0.1867806414105146	-0.5484077086539224	1.962484345949679	0.5371705594417453	-0.628859466201709	1.97065382308937	0.5428563998254283	-0.5132168175359362	1.980886942118932	0.06366659504924438	-0.60097388353086	1.992161753174759	0.07028231286475328	-0.4970608320400677	1.805481580400657	0.929511359050413	-0.5788088224968264	1.971057209076699	0.5392546133835837	-0.5689220176644647	1.721486794255547	1.127938119037699	-0.7249488369595319	1.974194301593988	0.05348877996586449	-0.5398609371587432	1.835155749315208	1.457113119276162	-0.7044429623262936	
149	3.82	1.891666954495325	1.454862862160097	-0.4731060132212151	1.766304298279695	1.54406064957991	-0.506540171628553	1.830717197399982	1.506814381279175	-0.3338630318963757	1.882673291703688	1.455733472757462	-0.3047019435191419	1.7839762220611	1.478385971198458	-0.3064932712828043	1.734125289848204	1.1549257665819	-0.2000341711677723	1.720617033749094	1.144887346004005	-0.2724175320537737	1.817183643085379	1.395965260832925	-0.2566388394805391	1.821939035161524	1.302313245755443	-0.2625332930508101	1.752611033835723	1.288256484417043	-0.2344302161138904	1.818303864224637	1.085092625506872	-0.2301655874024189	1.931190300180074	0.9545531099454856	-0.1740466480698414	1.870237558219613	0.9313246212325709	-0.1378748303566658	1.863054910709262	1.033086729429064	-0.3618834204674669	1.688192920542955	1.055727926254717	-0.4649732628713082	1.315495045392097	0.25770829161043	-0.410734875289738	1.423248414452543	0.05191261533201842	-0.4391597380285685	1.361126056953247	0.08682605168875467	-0.3466063350736673	1.778895228721231	0.8694568338511576	-0.3135324975203903	1.803710395405715	0.7527616502674738	-0.3097784150288631	1.708508180811684	0.6580639785469704	-0.337430152836434	1.627177265338692	0.368789869126031	-0.3986468156211727	1.562480474481767	0.3407590362880422	-0.3316345657322469	1.498760530578716	0.2648802576012023	-0.4012018623195838	1.718839820431131	0.5164180577212633	-0.3301000280566938	1.731404416511838	0.5051334485757838	-0.4449350394852751	1.363949109151679	0.2006276076257266	-0.3503791002467227	1.376415222432004	0.193283777975076	-0.4541069920715902	1.798301175405825	0.9246550078460266	-0.4201817908130924	1.7293608423891	0.5043775901935801	-0.3893421884563994	1.732140963102187	1.141212999767336	-0.234067635175264	1.351972332935624	0.1979286053490016	-0.411472829790184	1.836438649429617	1.466345035652147	-0.3055410910100296	1.835480847471916	1.496764654981962	-0.6808664256876038	1.887993976151182	1.447349482615462	-0.7038775168489645	1.781401140937187	1.471814180931738	-0.70581215083372	1.734767115521312	1.136121737647027	-0.7599209044840028	1.708715382457543	1.133773271322896	-0.6879702596967733	1.814063787642343	1.397010489519252	-0.7455533731194023	1.825292595495026	1.324480367591033	-0.7340928470920589	1.732784449314359	1.300299068144386	-0.7264816147148224	1.779558615962646	1.052318769127369	-0.7036033900999171	1.835813145249055	0.8709889568630809	-0.7517843401808817	1.770513716821766	0.8633085240368179	-0.7839317083192771	1.887793533121405	1.042874468301368	-0.6229030499417247	1.695738026080519	1.06406580837634	-0.5467371302765762	1.904627749065581	0.05150849050258623	-0.5430283901618044	2.136681191094744	0.04207988849206322	-0.5143812854025704	2.073988105554949	0.009305956601792058	-0.6048392041590056	1.863563966421208	0.8272491308287055	-0.6746037491893138	1.957312018493699	0.7329399493392577	-0.6545615911763325	1.928992712728059	0.6053488032275278	-0.6321370032927203	2.026347590703518	0.3864187685870246	-0.5616726992008327	2.001902954869984	0.2992601064811173	-0.6155289586251131	2.014684585536543	0.1863925498251998	-0.5486334029020059	1.966702744115804	0.5370957791032289	-0.62955991586175	1.974718392421781	0.5428336478116611	-0.5139090724884323	1.981309996513305	0.06348500367367088	-0.6011361327069719	1.992424071913836	0.07012228745773519	-0.4972071418110327	1.812093199219748	0.9304624268867376	-0.580114922166914	1.975205516555782	0.539170404057257	-0.5696076673662946	1.728951225448313	1.128564021382424	-0.7263784784221912	1.974411142842481	0.05342649192255111	-0.5400263648238425	1.841759333877112	1.457961045510147	-0.7047166643398521	
150	3.825	1.897928248044274	1.455568541785035	-0.4732943755985969	1.772574753447583	1.544736205110983	-0.5068430419181822	1.836748559912689	1.507380999909953	-0.334100424508162	1.888684587980359	1.45630033737712	-0.3049031826897133	1.789979995137609	1.478909512537079	-0.3068227261623137	1.739005708087126	1.155286912053777	-0.2019552518857237	1.725773191591529	1.145565960411482	-0.2744328167596409	1.822833442600008	1.396361874661965	-0.2572597692053655	1.827404296717002	1.30272352888734	-0.2635068291535252	1.757930035729399	1.288711135527085	-0.235744856366611	1.822561095561255	1.084509317006223	-0.2318238461423787	1.933447659215452	0.9523445069372044	-0.1755221509821084	1.871972510593187	0.9297209175109278	-0.1398545306465525	1.869599983281315	1.033367684874295	-0.362811167437654	1.694685214482591	1.056261676758385	-0.4657555397810161	1.326586136899002	0.2648280414474309	-0.4096267042580484	1.428529169131821	0.05628574597697705	-0.4394319205729678	1.367584499766539	0.09238654734925944	-0.346551636581833	1.786946089032339	0.8700673199093658	-0.3144204185454464	1.814109605433747	0.7539136471331549	-0.3101637553136463	1.720728218713671	0.6571862804230391	-0.3369865523384387	1.639761577045868	0.3697026074688099	-0.3978023246271656	1.574652248572149	0.3426580341959764	-0.3307843391744259	1.509419214670501	0.2682228680929373	-0.4005086993054746	1.733924241802421	0.5158154590551658	-0.3289742971322424	1.746305658185001	0.504193059298377	-0.4437955132915158	1.373505503944865	0.2063300443868449	-0.3496931787311592	1.38567629231651	0.1991089864354916	-0.4534647528213834	1.804863200560639	0.9250927398215709	-0.4214189288943945	1.744478317184261	0.5033224047973952	-0.3881979659062723	1.737130936598674	1.1417137018637	-0.2360508145837767	1.361388625220741	0.2040644680794548	-0.4107768916612773	1.842446421463173	1.466891605480803	-0.305802392829453	1.842031108788374	1.497611068878461	-0.6811042973803576	1.89460074417077	1.448238136382616	-0.704077003634848	1.7879997839006	1.472656045555371	-0.7061501105852566	1.742278708248005	1.136888557455978	-0.7613294450017318	1.716039411944081	1.134285812735284	-0.6894557472786194	1.82092071479231	1.397923635605052	-0.7460503153530093	1.832289800413232	1.32538964510699	-0.734753745780375	1.739818856112968	1.300970476189883	-0.7274563585337327	1.787374593470302	1.053215230976304	-0.7051064486256732	1.844794991317501	0.8723331201479827	-0.7535939390237333	1.779628850714617	0.8643630186797462	-0.7859406433545628	1.894223247854065	1.043976825454784	-0.623809610382982	1.702192149139263	1.064856756282764	-0.5474962851222678	1.904817766428768	0.05144621457961365	-0.5431929164589888	2.136865215649603	0.0419797245523918	-0.5145097858556179	2.074178200693873	0.00918800026491292	-0.6049654635435783	1.869532538247995	0.8277705631955597	-0.6756524252416181	1.962621584295777	0.7328617179191304	-0.6553707174086387	1.933422258635657	0.6054797366312064	-0.6328856999289985	2.029077616637097	0.3859230599344988	-0.5620425563402545	2.00408254345844	0.2988987356156224	-0.6158633940700579	2.015888169055342	0.1860026167764179	-0.5488367996557029	1.970676260328913	0.536981441007957	-0.6301864401133238	1.978533734525471	0.542765982913497	-0.5145270673749527	1.981692413118676	0.06329875989668093	-0.6012875242759649	1.992656802501544	0.06995208908691503	-0.4973436609033043	1.818584615286069	0.9314029236174691	-0.5813390867852362	1.979099148939628	0.5390465954158825	-0.5702201632667738	1.736390587407971	1.129227228959242	-0.727823145933828	1.974601126989273	0.053350919867235	-0.5401816676734402	1.848362577653584	1.458829404486298	-0.7049762137745877	
